{
  "accessors": [
    {
      "bufferView": 2,
      "componentType": 5126,
      "count": 65532,
      "max": [
        15.967529296875,
        10.775323867797852,
        15.471579551696777
      ],
      "min": [
        -16.031230926513672,
        -13.166277885437012,
        -8.01089096069336
      ],
      "type": "VEC3"
    },
    {
      "bufferView": 2,
      "byteOffset": 786384,
      "componentType": 5126,
      "count": 65532,
      "max": [
        0.9999973177909851,
        0.9999975562095642,
        0.9999991059303284
      ],
      "min": [
        -0.9999997019767761,
        -0.9999945163726807,
        -0.999930739402771
      ],
      "type": "VEC3"
    },
    {
      "bufferView": 1,
      "componentType": 5126,
      "count": 65532,
      "max": [
        0.9992300271987915,
        0.9992349743843079
      ],
      "min": [
        0.001478999969549477,
        0.003272000001743436
      ],
      "type": "VEC2"
    },
    {
      "bufferView": 0,
      "componentType": 5125,
      "count": 310605,
      "type": "SCALAR"
    },
    {
      "bufferView": 2,
      "byteOffset": 1572768,
      "componentType": 5126,
      "count": 65532,
      "max": [
        12.585965156555176,
        7.59117317199707,
        7.147988796234131
      ],
      "min": [
        -11.943631172180176,
        -7.940028190612793,
        0.6117680072784424
      ],
      "type": "VEC3"
    },
    {
      "bufferView": 2,
      "byteOffset": 2359152,
      "componentType": 5126,
      "count": 65532,
      "max": [
        0.9999935030937195,
        0.999993622303009,
        0.9999850392341614
      ],
      "min": [
        -0.9999998211860657,
        -0.9999951720237732,
        -0.9999480843544006
      ],
      "type": "VEC3"
    },
    {
      "bufferView": 1,
      "byteOffset": 524256,
      "componentType": 5126,
      "count": 65532,
      "max": [
        0.9982470273971558,
        0.9993699789047241
      ],
      "min": [
        0.0,
        0.0006440000142902136
      ],
      "type": "VEC2"
    },
    {
      "bufferView": 0,
      "byteOffset": 1242420,
      "componentType": 5125,
      "count": 291729,
      "type": "SCALAR"
    },
    {
      "bufferView": 2,
      "byteOffset": 3145536,
      "componentType": 5126,
      "count": 65532,
      "max": [
        13.09424877166748,
        7.851961135864258,
        4.164970874786377
      ],
      "min": [
        -11.940755844116211,
        -7.985264778137207,
        -1.6121540069580078
      ],
      "type": "VEC3"
    },
    {
      "bufferView": 2,
      "byteOffset": 3931920,
      "componentType": 5126,
      "count": 65532,
      "max": [
        0.9999956488609314,
        0.999993622303009,
        0.999991774559021
      ],
      "min": [
        -0.9999998211860657,
        -0.9999976754188538,
        -0.999998927116394
      ],
      "type": "VEC3"
    },
    {
      "bufferView": 1,
      "byteOffset": 1048512,
      "componentType": 5126,
      "count": 65532,
      "max": [
        0.9985569715499878,
        1.0
      ],
      "min": [
        0.0008520000264979899,
        0.0003870000073220581
      ],
      "type": "VEC2"
    },
    {
      "bufferView": 0,
      "byteOffset": 2409336,
      "componentType": 5125,
      "count": 274773,
      "type": "SCALAR"
    },
    {
      "bufferView": 2,
      "byteOffset": 4718304,
      "componentType": 5126,
      "count": 65532,
      "max": [
        13.000166893005371,
        7.852816104888916,
        1.6254689693450928
      ],
      "min": [
        -11.944584846496582,
        -7.930673122406006,
        -5.828184127807617
      ],
      "type": "VEC3"
    },
    {
      "bufferView": 2,
      "byteOffset": 5504688,
      "componentType": 5126,
      "count": 65532,
      "max": [
        0.9999855160713196,
        0.9999988675117493,
        0.9998724460601807
      ],
      "min": [
        -0.9999994039535522,
        -0.9999990463256836,
        -0.9999716877937317
      ],
      "type": "VEC3"
    },
    {
      "bufferView": 1,
      "byteOffset": 1572768,
      "componentType": 5126,
      "count": 65532,
      "max": [
        0.999783992767334,
        0.9991980195045471
      ],
      "min": [
        4.70000013592653e-05,
        0.0
      ],
      "type": "VEC2"
    },
    {
      "bufferView": 0,
      "byteOffset": 3508428,
      "componentType": 5125,
      "count": 268635,
      "type": "SCALAR"
    },
    {
      "bufferView": 2,
      "byteOffset": 6291072,
      "componentType": 5126,
      "count": 65532,
      "max": [
        12.682827949523926,
        7.577932834625244,
        0.7694420218467712
      ],
      "min": [
        -11.765400886535645,
        -7.854104042053223,
        -5.895208835601807
      ],
      "type": "VEC3"
    },
    {
      "bufferView": 2,
      "byteOffset": 7077456,
      "componentType": 5126,
      "count": 65532,
      "max": [
        0.999984860420227,
        0.9999991655349731,
        0.9996070861816406
      ],
      "min": [
        -0.9999999403953552,
        -0.9999982118606567,
        -0.9997868537902832
      ],
      "type": "VEC3"
    },
    {
      "bufferView": 1,
      "byteOffset": 2097024,
      "componentType": 5126,
      "count": 65532,
      "max": [
        0.99965900182724,
        0.9995629787445068
      ],
      "min": [
        0.0,
        0.00021699999342672527
      ],
      "type": "VEC2"
    },
    {
      "bufferView": 0,
      "byteOffset": 4582968,
      "componentType": 5125,
      "count": 241788,
      "type": "SCALAR"
    },
    {
      "bufferView": 2,
      "byteOffset": 7863840,
      "componentType": 5126,
      "count": 65532,
      "max": [
        12.688037872314453,
        7.409533977508545,
        -0.3238829970359802
      ],
      "min": [
        -11.68976879119873,
        -7.8865861892700195,
        -5.464725017547607
      ],
      "type": "VEC3"
    },
    {
      "bufferView": 2,
      "byteOffset": 8650224,
      "componentType": 5126,
      "count": 65532,
      "max": [
        0.9999892711639404,
        0.9999994039535522,
        0.9998565912246704
      ],
      "min": [
        -0.9999998211860657,
        -0.9999991655349731,
        -0.9999454617500305
      ],
      "type": "VEC3"
    },
    {
      "bufferView": 1,
      "byteOffset": 2621280,
      "componentType": 5126,
      "count": 65532,
      "max": [
        0.999284029006958,
        0.9998700022697449
      ],
      "min": [
        0.0,
        9.500000305706635e-05
      ],
      "type": "VEC2"
    },
    {
      "bufferView": 0,
      "byteOffset": 5550120,
      "componentType": 5125,
      "count": 222909,
      "type": "SCALAR"
    },
    {
      "bufferView": 2,
      "byteOffset": 9436608,
      "componentType": 5126,
      "count": 65532,
      "max": [
        12.79427433013916,
        7.7829270362854,
        -1.496925950050354
      ],
      "min": [
        -12.286731719970703,
        -10.348377227783203,
        -7.459097862243652
      ],
      "type": "VEC3"
    },
    {
      "bufferView": 2,
      "byteOffset": 10222992,
      "componentType": 5126,
      "count": 65532,
      "max": [
        0.9999853372573853,
        0.9999985694885254,
        0.9999987483024597
      ],
      "min": [
        -1.0,
        -0.9999992847442627,
        -0.9992852210998535
      ],
      "type": "VEC3"
    },
    {
      "bufferView": 1,
      "byteOffset": 3145536,
      "componentType": 5126,
      "count": 65532,
      "max": [
        0.9986630082130432,
        0.9997090101242065
      ],
      "min": [
        0.0,
        0.0008410000009462237
      ],
      "type": "VEC2"
    },
    {
      "bufferView": 0,
      "byteOffset": 6441756,
      "componentType": 5125,
      "count": 278070,
      "type": "SCALAR"
    },
    {
      "bufferView": 2,
      "byteOffset": 11009376,
      "componentType": 5126,
      "count": 65532,
      "max": [
        13.044608116149902,
        7.80946683883667,
        -2.2287559509277344
      ],
      "min": [
        -15.894583702087402,
        -11.449584007263184,
        -7.738757133483887
      ],
      "type": "VEC3"
    },
    {
      "bufferView": 2,
      "byteOffset": 11795760,
      "componentType": 5126,
      "count": 65532,
      "max": [
        0.9999980926513672,
        0.9999971389770508,
        0.9999999403953552
      ],
      "min": [
        -0.999999463558197,
        -0.9999979734420776,
        -0.9989154934883118
      ],
      "type": "VEC3"
    },
    {
      "bufferView": 1,
      "byteOffset": 3669792,
      "componentType": 5126,
      "count": 65532,
      "max": [
        0.9992520213127136,
        0.9998549818992615
      ],
      "min": [
        0.0,
        0.0
      ],
      "type": "VEC2"
    },
    {
      "bufferView": 0,
      "byteOffset": 7554036,
      "componentType": 5125,
      "count": 235932,
      "type": "SCALAR"
    },
    {
      "bufferView": 2,
      "byteOffset": 12582144,
      "componentType": 5126,
      "count": 65532,
      "max": [
        15.757043838500977,
        11.417543411254883,
        -6.500380992889404
      ],
      "min": [
        -16.0051326751709,
        -13.166570663452148,
        -8.169853210449219
      ],
      "type": "VEC3"
    },
    {
      "bufferView": 2,
      "byteOffset": 13368528,
      "componentType": 5126,
      "count": 65532,
      "max": [
        0.9999952912330627,
        0.9999832510948181,
        1.0
      ],
      "min": [
        -0.9999999403953552,
        -0.999997079372406,
        -0.9998632073402405
      ],
      "type": "VEC3"
    },
    {
      "bufferView": 1,
      "byteOffset": 4194048,
      "componentType": 5126,
      "count": 65532,
      "max": [
        0.9992300271987915,
        0.9986670017242432
      ],
      "min": [
        0.0,
        0.001867000013589859
      ],
      "type": "VEC2"
    },
    {
      "bufferView": 0,
      "byteOffset": 8497764,
      "componentType": 5125,
      "count": 304473,
      "type": "SCALAR"
    },
    {
      "bufferView": 2,
      "byteOffset": 14154912,
      "componentType": 5126,
      "count": 65532,
      "max": [
        15.96969985961914,
        11.411372184753418,
        11.412981986999512
      ],
      "min": [
        -16.041139602661133,
        -13.163103103637695,
        -8.169853210449219
      ],
      "type": "VEC3"
    },
    {
      "bufferView": 2,
      "byteOffset": 14941296,
      "componentType": 5126,
      "count": 65532,
      "max": [
        0.9999349117279053,
        0.9999887943267822,
        0.9999996423721313
      ],
      "min": [
        -0.9999998211860657,
        -0.9999978542327881,
        -0.9999724626541138
      ],
      "type": "VEC3"
    },
    {
      "bufferView": 1,
      "byteOffset": 4718304,
      "componentType": 5126,
      "count": 65532,
      "max": [
        1.0,
        0.9995440244674683
      ],
      "min": [
        0.0,
        0.0
      ],
      "type": "VEC2"
    },
    {
      "bufferView": 0,
      "byteOffset": 9715656,
      "componentType": 5125,
      "count": 177768,
      "type": "SCALAR"
    },
    {
      "bufferView": 2,
      "byteOffset": 15727680,
      "componentType": 5126,
      "count": 65532,
      "max": [
        12.74617862701416,
        7.213839054107666,
        -2.0742170810699463
      ],
      "min": [
        -11.727168083190918,
        -7.975667953491211,
        -5.360066890716553
      ],
      "type": "VEC3"
    },
    {
      "bufferView": 2,
      "byteOffset": 16514064,
      "componentType": 5126,
      "count": 65532,
      "max": [
        0.9999972581863403,
        0.9999992847442627,
        0.9999064207077026
      ],
      "min": [
        -0.9999990463256836,
        -0.9999958872795105,
        -0.9999184608459473
      ],
      "type": "VEC3"
    },
    {
      "bufferView": 1,
      "byteOffset": 5242560,
      "componentType": 5126,
      "count": 65532,
      "max": [
        0.9990760087966919,
        0.9995629787445068
      ],
      "min": [
        0.0,
        0.0009369999752379954
      ],
      "type": "VEC2"
    },
    {
      "bufferView": 0,
      "byteOffset": 10426728,
      "componentType": 5125,
      "count": 206151,
      "type": "SCALAR"
    },
    {
      "bufferView": 2,
      "byteOffset": 17300448,
      "componentType": 5126,
      "count": 65533,
      "max": [
        12.70007610321045,
        7.331271171569824,
        -1.732308030128479
      ],
      "min": [
        -11.754570960998535,
        -7.905191898345947,
        -4.233459949493408
      ],
      "type": "VEC3"
    },
    {
      "bufferView": 2,
      "byteOffset": 18086844,
      "componentType": 5126,
      "count": 65533,
      "max": [
        0.9999990463256836,
        0.9999988079071045,
        0.9996855854988098
      ],
      "min": [
        -0.9999999403953552,
        -0.9999998807907104,
        -0.9999753832817078
      ],
      "type": "VEC3"
    },
    {
      "bufferView": 1,
      "byteOffset": 5766816,
      "componentType": 5126,
      "count": 65533,
      "max": [
        0.9994519948959351,
        1.0
      ],
      "min": [
        3.9999998989515007e-05,
        3.9999998989515007e-05
      ],
      "type": "VEC2"
    },
    {
      "bufferView": 0,
      "byteOffset": 11251332,
      "componentType": 5125,
      "count": 183162,
      "type": "SCALAR"
    },
    {
      "bufferView": 2,
      "byteOffset": 18873240,
      "componentType": 5126,
      "count": 2651,
      "max": [
        12.678681373596191,
        7.31892204284668,
        -1.6984089612960815
      ],
      "min": [
        -11.610078811645508,
        -7.803188800811768,
        -1.993412971496582
      ],
      "type": "VEC3"
    },
    {
      "bufferView": 2,
      "byteOffset": 18905052,
      "componentType": 5126,
      "count": 2651,
      "max": [
        0.9992828965187073,
        0.999462366104126,
        0.9992054104804993
      ],
      "min": [
        -0.9999983310699463,
        -0.9999744296073914,
        -0.9982336163520813
      ],
      "type": "VEC3"
    },
    {
      "bufferView": 1,
      "byteOffset": 6291080,
      "componentType": 5126,
      "count": 2651,
      "max": [
        0.9982690215110779,
        0.997763991355896
      ],
      "min": [
        2.9000000722589903e-05,
        0.003358999965712428
      ],
      "type": "VEC2"
    },
    {
      "bufferView": 0,
      "byteOffset": 11983980,
      "componentType": 5125,
      "count": 3999,
      "type": "SCALAR"
    }
  ],
  "asset": {
    "extras": {
      "author": "Seeing through time (https://sketchfab.com/simon.radchenko)",
      "license": "CC-BY-4.0 (http://creativecommons.org/licenses/by/4.0/)",
      "source": "https://sketchfab.com/3d-models/illinska-church-in-subbotiv-beta-61520cd5d8a342db833ae97faead8098",
      "title": "Illinska church in Subbotiv - beta"
    },
    "generator": "Sketchfab-12.68.0",
    "version": "2.0"
  },
  "bufferViews": [
    {
      "buffer": 0,
      "byteLength": 11999976,
      "name": "floatBufferViews",
      "target": 34963
    },
    {
      "buffer": 0,
      "byteLength": 6312288,
      "byteOffset": 11999976,
      "byteStride": 8,
      "name": "floatBufferViews",
      "target": 34962
    },
    {
      "buffer": 0,
      "byteLength": 18936864,
      "byteOffset": 18312264,
      "byteStride": 12,
      "name": "floatBufferViews",
      "target": 34962
    }
  ],
  "buffers": [
    {
      "byteLength": 37249128,
      "uri": "scene.bin"
    }
  ],
  "extensionsUsed": [
    "KHR_materials_unlit"
  ],
  "images": [
    {
      "uri": "textures/model_baseColor.jpeg"
    }
  ],
  "materials": [
    {
      "doubleSided": true,
      "extensions": {
        "KHR_materials_unlit": {}
      },
      "name": "model",
      "pbrMetallicRoughness": {
        "baseColorTexture": {
          "index": 0
        },
        "metallicFactor": 0.0
      }
    }
  ],
  "meshes": [
    {
      "name": "Object_0",
      "primitives": [
        {
          "attributes": {
            "NORMAL": 1,
            "POSITION": 0,
            "TEXCOORD_0": 2
          },
          "indices": 3,
          "material": 0,
          "mode": 4
        }
      ]
    },
    {
      "name": "Object_1",
      "primitives": [
        {
          "attributes": {
            "NORMAL": 5,
            "POSITION": 4,
            "TEXCOORD_0": 6
          },
          "indices": 7,
          "material": 0,
          "mode": 4
        }
      ]
    },
    {
      "name": "Object_2",
      "primitives": [
        {
          "attributes": {
            "NORMAL": 9,
            "POSITION": 8,
            "TEXCOORD_0": 10
          },
          "indices": 11,
          "material": 0,
          "mode": 4
        }
      ]
    },
    {
      "name": "Object_3",
      "primitives": [
        {
          "attributes": {
            "NORMAL": 13,
            "POSITION": 12,
            "TEXCOORD_0": 14
          },
          "indices": 15,
          "material": 0,
          "mode": 4
        }
      ]
    },
    {
      "name": "Object_4",
      "primitives": [
        {
          "attributes": {
            "NORMAL": 17,
            "POSITION": 16,
            "TEXCOORD_0": 18
          },
          "indices": 19,
          "material": 0,
          "mode": 4
        }
      ]
    },
    {
      "name": "Object_5",
      "primitives": [
        {
          "attributes": {
            "NORMAL": 21,
            "POSITION": 20,
            "TEXCOORD_0": 22
          },
          "indices": 23,
          "material": 0,
          "mode": 4
        }
      ]
    },
    {
      "name": "Object_6",
      "primitives": [
        {
          "attributes": {
            "NORMAL": 25,
            "POSITION": 24,
            "TEXCOORD_0": 26
          },
          "indices": 27,
          "material": 0,
          "mode": 4
        }
      ]
    },
    {
      "name": "Object_7",
      "primitives": [
        {
          "attributes": {
            "NORMAL": 29,
            "POSITION": 28,
            "TEXCOORD_0": 30
          },
          "indices": 31,
          "material": 0,
          "mode": 4
        }
      ]
    },
    {
      "name": "Object_8",
      "primitives": [
        {
          "attributes": {
            "NORMAL": 33,
            "POSITION": 32,
            "TEXCOORD_0": 34
          },
          "indices": 35,
          "material": 0,
          "mode": 4
        }
      ]
    },
    {
      "name": "Object_9",
      "primitives": [
        {
          "attributes": {
            "NORMAL": 37,
            "POSITION": 36,
            "TEXCOORD_0": 38
          },
          "indices": 39,
          "material": 0,
          "mode": 4
        }
      ]
    },
    {
      "name": "Object_10",
      "primitives": [
        {
          "attributes": {
            "NORMAL": 41,
            "POSITION": 40,
            "TEXCOORD_0": 42
          },
          "indices": 43,
          "material": 0,
          "mode": 4
        }
      ]
    },
    {
      "name": "Object_11",
      "primitives": [
        {
          "attributes": {
            "NORMAL": 45,
            "POSITION": 44,
            "TEXCOORD_0": 46
          },
          "indices": 47,
          "material": 0,
          "mode": 4
        }
      ]
    },
    {
      "name": "Object_12",
      "primitives": [
        {
          "attributes": {
            "NORMAL": 49,
            "POSITION": 48,
            "TEXCOORD_0": 50
          },
          "indices": 51,
          "material": 0,
          "mode": 4
        }
      ]
    }
  ],
  "nodes": [
    {
      "children": [
        1
      ],
      "matrix": [
        1.0,
        0.0,
        0.0,
        0.0,
        0.0,
        2.220446049250313e-16,
        -1.0,
        0.0,
        0.0,
        1.0,
        2.220446049250313e-16,
        0.0,
        0.0,
        0.0,
        0.0,
        1.0
      ],
      "name": "Sketchfab_model"
    },
    {
      "children": [
        2,
        3,
        4,
        5,
        6,
        7,
        8,
        9,
        10,
        11,
        12,
        13,
        14
      ],
      "name": "model.obj.cleaner.materialmerger.gles"
    },
    {
      "mesh": 0,
      "name": "Object_2"
    },
    {
      "mesh": 1,
      "name": "Object_3"
    },
    {
      "mesh": 2,
      "name": "Object_4"
    },
    {
      "mesh": 3,
      "name": "Object_5"
    },
    {
      "mesh": 4,
      "name": "Object_6"
    },
    {
      "mesh": 5,
      "name": "Object_7"
    },
    {
      "mesh": 6,
      "name": "Object_8"
    },
    {
      "mesh": 7,
      "name": "Object_9"
    },
    {
      "mesh": 8,
      "name": "Object_10"
    },
    {
      "mesh": 9,
      "name": "Object_11"
    },
    {
      "mesh": 10,
      "name": "Object_12"
    },
    {
      "mesh": 11,
      "name": "Object_13"
    },
    {
      "mesh": 12,
      "name": "Object_14"
    }
  ],
  "samplers": [
    {
      "magFilter": 9729,
      "minFilter": 9987,
      "wrapS": 10497,
      "wrapT": 10497
    }
  ],
  "scene": 0,
  "scenes": [
    {
      "name": "Sketchfab_Scene",
      "nodes": [
        0
      ]
    }
  ],
  "textures": [
    {
      "sampler": 0,
      "source": 0
    }
  ]
}
