{
  "accessors": [
    {
      "bufferView": 2,
      "componentType": 5126,
      "count": 65532,
      "max": [
        2.6316092014312744,
        5.361294746398926,
        0.6151792407035828
      ],
      "min": [
        -0.9802964925765991,
        2.7927048206329346,
        -0.9871572852134705
      ],
      "type": "VEC3"
    },
    {
      "bufferView": 2,
      "byteOffset": 786384,
      "componentType": 5126,
      "count": 65532,
      "max": [
        0.9998680353164673,
        0.9999927282333374,
        0.9984496235847473
      ],
      "min": [
        -0.9996729493141174,
        -0.9931273460388184,
        -0.9999949336051941
      ],
      "type": "VEC3"
    },
    {
      "bufferView": 1,
      "componentType": 5126,
      "count": 65532,
      "max": [
        0.9942522644996643,
        0.9993138909339905
      ],
      "min": [
        0.0002717800089158118,
        0.003747209906578064
      ],
      "type": "VEC2"
    },
    {
      "bufferView": 0,
      "componentType": 5125,
      "count": 341988,
      "type": "SCALAR"
    },
    {
      "bufferView": 2,
      "byteOffset": 1572768,
      "componentType": 5126,
      "count": 65532,
      "max": [
        2.112563133239746,
        5.245306968688965,
        0.44862526655197144
      ],
      "min": [
        -0.017725180834531784,
        3.049852132797241,
        -0.7953951358795166
      ],
      "type": "VEC3"
    },
    {
      "bufferView": 2,
      "byteOffset": 2359152,
      "componentType": 5126,
      "count": 65532,
      "max": [
        0.9999994039535522,
        0.99996417760849,
        0.9976382255554199
      ],
      "min": [
        -0.999644935131073,
        -0.9996169209480286,
        -0.9999845623970032
      ],
      "type": "VEC3"
    },
    {
      "bufferView": 1,
      "byteOffset": 524256,
      "componentType": 5126,
      "count": 65532,
      "max": [
        0.9946275353431702,
        0.9994362592697144
      ],
      "min": [
        0.0006459900178015232,
        0.0030336501076817513
      ],
      "type": "VEC2"
    },
    {
      "bufferView": 0,
      "byteOffset": 1367952,
      "componentType": 5125,
      "count": 327387,
      "type": "SCALAR"
    },
    {
      "bufferView": 2,
      "byteOffset": 3145536,
      "componentType": 5126,
      "count": 65532,
      "max": [
        1.2404866218566895,
        5.364453315734863,
        0.6171467900276184
      ],
      "min": [
        -0.8812426328659058,
        3.682147264480591,
        -0.7934854030609131
      ],
      "type": "VEC3"
    },
    {
      "bufferView": 2,
      "byteOffset": 3931920,
      "componentType": 5126,
      "count": 65532,
      "max": [
        0.9999963045120239,
        0.9999927282333374,
        0.9996271133422852
      ],
      "min": [
        -0.9999889135360718,
        -0.9996169209480286,
        -0.9999665021896362
      ],
      "type": "VEC3"
    },
    {
      "bufferView": 1,
      "byteOffset": 1048512,
      "componentType": 5126,
      "count": 65532,
      "max": [
        0.9969788193702698,
        0.9996394515037537
      ],
      "min": [
        -8.989000343717635e-05,
        0.004396960139274597
      ],
      "type": "VEC2"
    },
    {
      "bufferView": 0,
      "byteOffset": 2677500,
      "componentType": 5125,
      "count": 310371,
      "type": "SCALAR"
    },
    {
      "bufferView": 2,
      "byteOffset": 4718304,
      "componentType": 5126,
      "count": 47331,
      "max": [
        1.6252092123031616,
        5.1716485023498535,
        0.44521480798721313
      ],
      "min": [
        0.10540135204792023,
        3.3280506134033203,
        -0.8039759993553162
      ],
      "type": "VEC3"
    },
    {
      "bufferView": 2,
      "byteOffset": 5286276,
      "componentType": 5126,
      "count": 47331,
      "max": [
        0.9999994039535522,
        0.9999977350234985,
        0.9995779395103455
      ],
      "min": [
        -0.9999889135360718,
        -0.998236358165741,
        -0.9999990463256836
      ],
      "type": "VEC3"
    },
    {
      "bufferView": 1,
      "byteOffset": 1572768,
      "componentType": 5126,
      "count": 47331,
      "max": [
        0.9966212511062622,
        1.0000381469726563
      ],
      "min": [
        -0.00020809000125154853,
        0.0021183800417929888
      ],
      "type": "VEC2"
    },
    {
      "bufferView": 0,
      "byteOffset": 3918984,
      "componentType": 5125,
      "count": 220254,
      "type": "SCALAR"
    }
  ],
  "asset": {
    "extras": {
      "author": "Sircher (https://sketchfab.com/Sircher)",
      "license": "CC-BY-4.0 (http://creativecommons.org/licenses/by/4.0/)",
      "source": "https://sketchfab.com/3d-models/church-of-saint-george-ragusa-sicily-cd47095702b741b7b787cd71c8915d8d",
      "title": "Church of Saint George - Ragusa, Sicily"
    },
    "generator": "Sketchfab-12.66.0",
    "version": "2.0"
  },
  "bufferViews": [
    {
      "buffer": 0,
      "byteLength": 4800000,
      "name": "floatBufferViews",
      "target": 34963
    },
    {
      "buffer": 0,
      "byteLength": 1951416,
      "byteOffset": 4800000,
      "byteStride": 8,
      "name": "floatBufferViews",
      "target": 34962
    },
    {
      "buffer": 0,
      "byteLength": 5854248,
      "byteOffset": 6751416,
      "byteStride": 12,
      "name": "floatBufferViews",
      "target": 34962
    }
  ],
  "buffers": [
    {
      "byteLength": 12605664,
      "uri": "scene.bin"
    }
  ],
  "images": [
    {
      "uri": "textures/ragu1_baseColor.jpeg"
    }
  ],
  "materials": [
    {
      "doubleSided": true,
      "name": "ragu1",
      "pbrMetallicRoughness": {
        "baseColorTexture": {
          "index": 0
        },
        "metallicFactor": 0.0,
        "roughnessFactor": 0.7003614662945601
      }
    }
  ],
  "meshes": [
    {
      "name": "Object_0",
      "primitives": [
        {
          "attributes": {
            "NORMAL": 1,
            "POSITION": 0,
            "TEXCOORD_0": 2
          },
          "indices": 3,
          "material": 0,
          "mode": 4
        }
      ]
    },
    {
      "name": "Object_1",
      "primitives": [
        {
          "attributes": {
            "NORMAL": 5,
            "POSITION": 4,
            "TEXCOORD_0": 6
          },
          "indices": 7,
          "material": 0,
          "mode": 4
        }
      ]
    },
    {
      "name": "Object_2",
      "primitives": [
        {
          "attributes": {
            "NORMAL": 9,
            "POSITION": 8,
            "TEXCOORD_0": 10
          },
          "indices": 11,
          "material": 0,
          "mode": 4
        }
      ]
    },
    {
      "name": "Object_3",
      "primitives": [
        {
          "attributes": {
            "NORMAL": 13,
            "POSITION": 12,
            "TEXCOORD_0": 14
          },
          "indices": 15,
          "material": 0,
          "mode": 4
        }
      ]
    }
  ],
  "nodes": [
    {
      "children": [
        1
      ],
      "matrix": [
        1.208436883038118,
        0.5255988857744218,
        -1.7745530706952903,
        0.0,
        1.4761244893073666,
        1.0046931768379748,
        1.3027894931498738,
        0.0,
        1.116399983965735,
        -1.8973533418185156,
        0.1982765327165992,
        0.0,
        -2.256082057952881,
        -2.3940308094024645,
        -5.803044795989991,
        1.0
      ],
      "name": "Sketchfab_model"
    },
    {
      "children": [
        2,
        3,
        4,
        5
      ],
      "name": "ragu1.obj.cleaner.materialmerger.gles"
    },
    {
      "mesh": 0,
      "name": "Object_2"
    },
    {
      "mesh": 1,
      "name": "Object_3"
    },
    {
      "mesh": 2,
      "name": "Object_4"
    },
    {
      "mesh": 3,
      "name": "Object_5"
    }
  ],
  "samplers": [
    {
      "magFilter": 9729,
      "minFilter": 9987,
      "wrapS": 10497,
      "wrapT": 10497
    }
  ],
  "scene": 0,
  "scenes": [
    {
      "name": "Sketchfab_Scene",
      "nodes": [
        0
      ]
    }
  ],
  "textures": [
    {
      "sampler": 0,
      "source": 0
    }
  ]
}
